<?xml version="1.0" encoding="UTF-8" standalone="no"?>
<!-- Created with Inkscape (http://www.inkscape.org/) -->

<svg
   xmlns:dc="http://purl.org/dc/elements/1.1/"
   xmlns:cc="http://creativecommons.org/ns#"
   xmlns:rdf="http://www.w3.org/1999/02/22-rdf-syntax-ns#"
   xmlns:svg="http://www.w3.org/2000/svg"
   xmlns="http://www.w3.org/2000/svg"
   xmlns:sodipodi="http://sodipodi.sourceforge.net/DTD/sodipodi-0.dtd"
   xmlns:inkscape="http://www.inkscape.org/namespaces/inkscape"
   version="1.1"
   id="svg2"
   width="609"
   height="284"
   viewBox="0 0 609 284"
   sodipodi:docname="Tughra of Selim II.svg"
   inkscape:version="0.92.3 (2405546, 2018-03-11)">
  <metadata
     id="metadata8">
    <rdf:RDF>
      <cc:Work
         rdf:about="">
        <dc:format>image/svg+xml</dc:format>
        <dc:type
           rdf:resource="http://purl.org/dc/dcmitype/StillImage" />
        <dc:title></dc:title>
      </cc:Work>
    </rdf:RDF>
  </metadata>
  <defs
     id="defs6" />
  <sodipodi:namedview
     pagecolor="#ffffff"
     bordercolor="#666666"
     borderopacity="1"
     objecttolerance="10"
     gridtolerance="10"
     guidetolerance="10"
     inkscape:pageopacity="0"
     inkscape:pageshadow="2"
     inkscape:window-width="1366"
     inkscape:window-height="705"
     id="namedview4"
     showgrid="false"
     inkscape:zoom="2.2988506"
     inkscape:cx="366.83086"
     inkscape:cy="77.737037"
     inkscape:window-x="-8"
     inkscape:window-y="-8"
     inkscape:window-maximized="1"
     inkscape:current-layer="svg2" />
  <path
     style="fill:#000000"
     d="m 357.52455,272.07735 c -0.42884,-1.35116 -2.04998,-2.37355 -4.83486,-3.04916 -2.30433,-0.55904 -6.51772,-1.75545 -9.36309,-2.65869 -2.84537,-0.90325 -5.89624,-1.36489 -6.77971,-1.02587 -0.88347,0.33902 -3.47184,-0.13004 -5.75194,-1.04235 -4.04982,-1.62042 -4.17907,-1.6084 -5.59227,0.51998 -1.79672,2.70602 -6.55848,2.91446 -8.39598,0.36753 -2.2068,-3.05882 -3.88166,-3.5426 -13.28577,-3.83754 -10.65262,-0.33411 -16.76785,-2.229 -21.2672,-6.58995 -4.16617,-4.03801 -4.42541,-8.68053 -0.69312,-12.41282 3.39297,-3.39297 4.17571,-2.30775 1.92903,2.67449 -2.67866,5.94021 -0.83927,7.15587 4.4256,2.9249 4.33805,-3.48615 5.08266,-5.8748 2.4996,-8.01854 -1.12187,-0.93108 -1.40067,-2.20897 -0.95392,-4.37245 0.34718,-1.68128 0.83719,-5.81288 1.08892,-9.18132 0.57974,-7.75786 -0.68232,-9.18355 -5.61821,-6.34661 -1.88739,1.0848 -5.89134,3.11529 -8.89764,4.51221 -3.00631,1.39691 -6.15631,3.12168 -7,3.8328 -0.8437,0.71113 -8.19793,4.16419 -16.34274,7.67346 -12.35342,5.3226 -14.96211,6.13778 -15.73374,4.91654 -1.51016,-2.39008 -0.59743,-3.32744 5.30579,-5.449 8.403,-3.61952 17.26737,-7.05922 24.13943,-10.40911 7.7535,-3.79178 16.45977,-7.922 19.34727,-9.17826 3.4042,-1.48106 5.25,-2.88698 5.25,-3.99886 0,-2.78316 -2.39761,-2.91046 -7.60819,-0.40396 -2.69049,1.29424 -6.91681,3.24264 -9.39181,4.32976 -2.475,1.08713 -7.63486,3.41889 -11.46636,5.18169 -3.83149,1.76279 -10.47956,4.22647 -14.77347,5.47484 -7.73571,2.24899 -7.81678,2.25168 -8.86466,0.2937 -0.58165,-1.08683 -0.90859,-2.05898 -0.72653,-2.16033 0.18206,-0.10135 3.70602,-1.24521 7.83102,-2.54191 7.91973,-2.48958 16.50486,-5.55416 21.5,-7.67472 1.65,-0.70046 4.24175,-1.58312 5.75945,-1.96147 3.54998,-1.85274 7.67665,-2.93894 10.97669,-4.46633 2.27673,-1.1 4.71416,-2 5.41651,-2 2.58661,0 3.57746,-3.87233 2.32584,-9.08966 -1.38146,-5.75859 -3.52891,-6.83178 -9.05235,-4.52394 -7.83583,3.27401 -27.54012,7.45093 -42.98469,9.11189 -6.27413,0.67474 -11.19626,-0.67069 -10.36629,-2.83356 0.38878,-1.01315 3.48807,-1.59294 11.2309,-2.10099 13.9987,-0.91853 46.37845,-7.75213 49.52744,-10.45254 1.03987,-0.89173 3.13472,-1.43582 4.83965,-1.25699 2.45951,0.25799 2.94283,-0.0183 2.65795,-1.51944 -0.22627,-1.1923 -1.3957,-1.95161 -3.33965,-2.16843 C 292.84615,180.98282 290.825,180.23792 290,179.511 288.34144,178.04963 276.32415,173 274.50486,173 c -0.63268,0 -5.61759,-1.79565 -11.07759,-3.99034 -5.46,-2.19468 -10.61962,-3.99468 -11.46583,-4 -0.84621,-0.005 -3.21137,-0.86251 -5.25593,-1.90488 -4.15876,-2.12026 -22.30224,-5.84138 -23.35388,-4.78975 -0.37208,0.37209 -0.15341,1.82459 0.48593,3.2278 0.63934,1.4032 1.16244,5.2301 1.16244,8.50422 0,7.0512 1.66068,7.8881 4.8675,2.45295 1.13578,-1.925 2.73226,-3.5 3.54775,-3.5 1.30936,0 1.30992,0.41351 0.005,3.53711 -0.95321,2.28135 -1.15951,4.10603 -0.58109,5.13961 0.76721,1.37094 1.30107,1.14881 3.69422,-1.5371 6.06847,-6.81082 16.531,-1.73361 12.38633,6.01078 -1.40921,2.63312 -6.82617,4.8496 -11.85221,4.8496 -2.97348,0 -4.27101,0.51212 -5.0673,2 -1.11741,2.0879 -4.48746,2.61028 -6.91736,1.07223 -0.89476,-0.56635 -1.35858,-2.3975 -1.25792,-4.96629 0.0877,-2.23804 -0.57512,-6.66494 -1.47291,-9.83755 -2.32511,-8.21641 -2.79824,-14.02555 -1.29031,-15.84249 1.03706,-1.24958 0.96501,-1.82796 -0.3974,-3.19037 -1.4119,-1.4119 -4.05106,-1.66306 -17.4141,-1.65721 -8.6625,0.004 -17.775,0.52015 -20.25,1.14746 -2.475,0.62731 -7.3098,1.68156 -10.744,2.34276 -6.74259,1.2982 -9.64736,2.82608 -8.48734,4.46428 0.40224,0.56804 3.20634,2.57828 6.23134,4.46718 3.025,1.8889 5.725,3.72158 6,4.07261 0.275,0.35103 3.65,2.77111 7.5,5.37797 3.85,2.60685 8.125,5.77356 9.5,7.03711 5.20728,4.78525 16.54202,9.40765 28.25,11.5206 6.49317,1.17182 6.75,1.32801 6.75,4.10494 0,1.58772 -0.3375,2.88533 -0.75,2.88358 -4.69619,-0.02 -19.91012,-3.77406 -25.10913,-6.1957 -7.19142,-3.34969 -19.65944,-11.62779 -27.64087,-18.35205 -7.62265,-6.422 -17.50955,-12.45001 -20.40504,-12.44087 -1.96835,0.006 -3.74888,1.45529 -7.37366,6.00106 -12.30777,15.89237 -11.72793,23.62119 0.6616,37.64929 4.9546,7.03529 20.03525,13.44863 27.1171,15.59781 3.3,0.87603 7.8759,2.08382 10.16866,2.68397 6.47568,1.69508 34.92438,1.42963 42.81125,-0.39946 8.55192,-1.98332 9.52009,-1.94263 9.52009,0.40009 0,2.55703 -0.52027,2.80956 -9.21571,4.47328 -16.49092,3.15523 -31.43897,3.05392 -46.28429,-0.31371 -23.85696,-5.41189 -37.99326,-14.63614 -44.12808,-28.79454 -3.84803,-7.29886 -4.07138,-16.59554 -0.83694,-23.80601 1.04974,-2.2 4.50881,-6.64059 7.68682,-9.86798 3.17801,-3.22739 5.7782,-6.21674 5.7782,-6.64301 0,-0.42627 -0.7118,-1.04818 -1.58179,-1.38202 -2.28425,-0.87655 -14.23515,-0.66567 -18.91821,0.33382 -2.2,0.46954 -5.575,1.20084 -7.5,1.6251 -3.04441,0.67099 -3.33915,0.57564 -2.26431,-0.73247 0.67962,-0.82713 2.92962,-2.03977 5,-2.69476 5.11668,-1.61871 18.2715,-2.86931 21.30028,-2.02495 5.1715,1.44169 12.39053,0.92177 15.46403,-1.11373 11.87677,-5.154 26.40808,-7.35865 38,-7.5 12.13726,0 15.46358,0.37824 25,2.84281 6.05,1.56355 11.4275,3.25105 11.95,3.75 0.5225,0.49895 3.09417,0.90719 5.71482,0.90719 3.63469,0 5.00271,-0.44451 5.76782,-1.87413 1.31552,-2.45808 -1.13031,-4.39099 -12.93264,-10.22046 -4.63767,-2.29067 -26.78876,-12.16057 -34.5,-15.37223 -13.72297,-5.71549 -10.38597,-4.60421 -30,-9.9906 -15.80157,-4.33942 -49.59905,-5.4819 -60.57063,-2.26065 -9.54988,1.72543 -19.680957,5.24108 -28.072699,9.25126 -35.037268,13.98773 -67.938705,56.41646 -57.1643,86.01379 4.949493,11.99623 11.768786,19.05139 20.750338,26.0479 14.415278,8.85049 33.875786,16.67758 51.057091,20.43608 11.87999,2.50208 39.96622,3.65812 51.5,2.11976 14.21436,-1.8959 26.61657,-4.13465 34.54752,-6.23626 4.37386,-1.15902 9.75248,-2.55473 11.95248,-3.10156 2.2,-0.54684 4.675,-1.25607 5.5,-1.57606 0.825,-0.31999 2.49621,-0.70097 3.71379,-0.84661 1.21759,-0.14565 8.38544,-2.32707 15.92855,-4.84762 10.54163,-3.5225 13.8972,-4.28895 14.50329,-3.31269 1.84994,2.97977 -7.55622,7.3564 -29.14563,13.56129 -35.16303,10.106 -60.52945,13.65966 -87.08635,12.20021 C 84.038894,265.33103 44.070485,252.1522 28.165437,229.76914 18.197581,217.7892 12.987931,200.81162 15.61089,186 17.347099,175.02637 27.639093,158.56716 41.257535,144.98526 55.426133,132.31464 75.426789,120.35298 92,114.72374 c 11.48964,-3.82584 26.64704,-6.30983 40.67873,-6.66641 13.41216,-0.21487 27.3264,2.34558 39.82127,4.96468 7.58618,1.58267 22.49246,6.67759 33.5,11.45019 4.675,2.02697 9.79706,4.16472 11.38237,4.75056 1.5853,0.58585 6.84338,3.25039 11.68462,5.92121 5.93912,3.66265 13.80939,7.19388 18.65389,10.44136 5.79385,3.93181 8.10298,3.30298 15.9198,-4.33533 7.45492,-7.28468 14.99886,-16.67158 17.84528,-22.20481 4.21614,-8.1959 2.18249,-24.54684 -4.34148,-34.906377 -6.67222,-10.594928 -13.21619,-24.720708 -13.80405,-29.79732 -1.09714,-9.474708 -0.0532,-11.841815 9.23794,-20.946572 5.27501,-5.169204 7.76913,-8.983894 8.42163,-10.355197 1.79725,-5.101305 0.76457,-6.161883 1.72951,-7.169238 1.6819,-1.681894 2.58813,0.852233 2.39695,6.702668 -0.10656,3.260974 0.29638,5.570139 1.05362,6.038141 1.67909,1.037732 9.82706,-8.5031 11.78707,-13.802006 0.84307,-2.279252 2.05276,-4.317067 2.68821,-4.528477 1.7119,-0.5695437 3.4442,5.723506 3.47724,12.632042 0.016,3.337951 0.48572,6.351255 1.0439,6.696231 C 311.99037,26.907069 313.8603,20.672187 317,16.5 c 0.55,-0.339919 1,-1.941476 1,-3.559017 C 318,10.700849 318.46055,10 319.93261,10 c 2.57078,0 2.92867,1.494995 3.59091,15 0.31015,6.325 1.16433,16.9 1.89817,23.5 0.73384,6.6 1.34733,12.675 1.36331,13.5 0.016,0.825 0.55042,6 1.18762,11.5 0.6372,5.5 1.39994,12.222576 1.69498,14.939057 0.29503,2.716482 1.39052,7.612604 2.43441,10.880272 2.12731,6.659051 2.32295,10.166901 0.96606,17.321761 -0.90374,4.76539 -0.58477,12.33608 1.92987,45.80546 1.16958,15.56686 1.83354,17.07864 7.81765,17.80008 2.02643,0.2443 7.95941,1.45156 13.18441,2.6828 17.51681,4.12773 42.77654,8.46642 67.5,11.59399 6.6,0.83492 13.35,1.74096 15,2.01343 22.75675,3.75789 124.73482,9.98744 155.25,9.48378 0.6875,-0.0114 1.25,0.72576 1.25,1.63801 0,1.52296 -2.35192,1.60023 -28.75,0.94451 C 473.40406,206.29691 418.8632,200.8715 353.48216,187.43826 336.80085,184.0109 337.5,184.0331 337.5,186.93088 c 0,2.18477 0.65808,2.56949 6.5,3.79995 3.575,0.75298 11.44768,2.49544 17.49485,3.87213 17.7088,4.03157 38.18997,6.8673 89.50515,12.3925 28.28042,3.04499 63.06202,4.50494 107.27551,4.50284 29.72797,-0.001 35.72893,0.22947 35.5,1.3658 -0.20802,1.03251 -2.96999,1.44759 -11.27551,1.69452 -26.35378,0.78351 -76.25787,0.49723 -90.5,-0.51916 -34.33705,-2.45047 -55.90475,-4.14606 -63.5,-4.99219 -4.4,-0.49017 -11.15,-1.16059 -15,-1.48982 -8.57973,-0.73368 -19.39921,-2.21447 -30,-4.10587 -4.4,-0.78506 -10.475,-1.84668 -13.5,-2.35916 -3.025,-0.51248 -9.775,-1.943 -15,-3.17893 -5.225,-1.23593 -11.525,-2.28458 -14,-2.33032 -4.36994,-0.0808 -4.4939,0.001 -4.28888,2.83379 0.26279,3.63075 1.33806,4.31031 7.00007,4.42396 6.0234,0.1209 8.06375,0.87461 8.82028,3.25822 1.01668,3.20327 -1.25981,4.90086 -6.57213,4.90086 -5.9559,0 -7.95934,0.73172 -7.95934,2.90699 0,2.90079 2.2072,4.09301 7.57756,4.09301 3.31309,0 5.61275,0.52438 6.38609,1.4562 2.17822,2.62459 0.119,3.74706 -6.21261,3.38645 -4.8503,-0.27624 -6.2286,-0.009 -7.11124,1.37983 -1.59646,2.51165 0.0555,3.67003 6.79906,4.76757 7.14777,1.16333 8.6506,2.864 8.40366,9.50995 -0.10219,2.75 0.13392,6.8 0.52468,9 0.39076,2.2 1.18476,6.68467 1.76444,9.96594 0.63658,3.60331 1.99059,7.07905 3.41907,8.77669 1.75806,2.08934 2.15889,3.36818 1.56169,4.98256 -1.08364,2.92937 -2.79924,3.33684 -3.58785,0.85216 z M 352,260.2 c 0,-3.79186 -1.67894,-5.2 -6.2,-5.2 -3.08563,0 -3.8,0.36234 -3.8,1.92742 0,2.45519 4.54803,6.07258 7.63486,6.07258 1.92372,0 2.36514,-0.52257 2.36514,-2.8 z m -15.58239,-0.5161 c 3.08446,-2.25541 1.61301,-5.13894 -2.80771,-5.50212 -5.50181,-0.452 -6.83993,1.32498 -3.30414,4.38778 3.24353,2.80965 3.68365,2.88989 6.11185,1.11434 z M 324.5,255 c 0,-0.825 -1.07411,-1.65187 -2.38691,-1.83749 -2.66925,-0.37742 -4.69634,1.83471 -2.8103,3.06682 C 321.1716,257.4502 324.5,256.66291 324.5,255 Z m -14.64299,-0.89047 C 312.26383,252.58451 310.25954,249 307,249 c -2.04308,0 -3.05874,0.6097 -3.53962,2.12485 -0.70643,2.22575 0.78396,3.84452 3.53962,3.84452 0.825,0 2.11066,-0.38692 2.85701,-0.85984 z m -14.18888,-2.68707 c 0.78789,-2.05321 -2.05304,-4.87247 -4.11327,-4.08189 -2.25468,0.86521 -3.118,3.68924 -1.45058,4.74504 2.1919,1.3879 4.90068,1.06504 5.56385,-0.66315 z m 23.7034,-0.93685 c 1.19569,-1.19569 1.29536,-2.14271 0.47361,-4.5 C 319.01225,243.59638 318.22464,243 315.90217,243 c -3.09084,0 -3.32919,0.61491 -2.27717,5.875 0.69448,3.47242 3.18632,4.17082 5.74653,1.61061 z m 16.05704,-2.05704 c 1.88603,-1.88603 1.95289,-2.64711 0.37143,-4.22857 -1.79971,-1.79971 -10.72625,-1.55576 -11.44326,0.31273 -0.74299,1.93621 1.16957,4.24672 3.96588,4.79105 4.27635,0.83244 5.5559,0.67485 7.10595,-0.87521 z M 350,248.02568 c 0,-2.43352 -4.86662,-5.13483 -7.84678,-4.3555 -2.35705,0.61639 -2.84433,3.23871 -0.95322,5.12982 0.66,0.66 2.91,1.2 5,1.2 3.11686,0 3.8,-0.35493 3.8,-1.97432 z m -44.82874,-1.68067 c 2.31845,-2.09817 2.31146,-3.59818 -0.0266,-5.71413 -2.24096,-2.02804 -4.41602,-1.36081 -6.15476,1.88807 -2.36808,4.4248 2.31608,7.32413 6.1814,3.82606 z m -5.10552,-7.38019 C 301.12958,238.39547 302,237.2863 302,236.5 c 0,-2.63 -5.09882,-4.35814 -7.80117,-2.64405 -1.03978,0.65954 -1.05776,1.35956 -0.0895,3.48469 1.2975,2.84771 2.86935,3.27631 5.95639,1.62418 z M 312,238.10699 c 0,-1.9687 -2.5065,-3.53003 -4.09295,-2.54955 -1.30332,0.8055 0.84829,4.44256 2.62813,4.44256 0.80565,0 1.46482,-0.85186 1.46482,-1.89301 z m 22.43142,0.56681 c 1.26733,-0.92669 1.60584,-1.98103 1.12374,-3.5 -0.60672,-1.91162 -1.40925,-2.1738 -6.65393,-2.1738 -4.40116,0 -6.11611,0.39641 -6.54449,1.51273 -0.84968,2.21424 1.33822,4.3148 4.96773,4.76943 1.74654,0.21877 3.65202,0.46978 4.2344,0.5578 0.58238,0.088 1.87503,-0.43675 2.87255,-1.16616 z M 348,239.01315 c 2.03374,-1.29646 0.2638,-4.09188 -3.35443,-5.29796 -3.50919,-1.16973 -5.64557,-0.3048 -5.64557,2.28565 0,3.1034 5.8078,5.04728 9,3.01231 z m -30.58402,-10.4501 c -0.054,-4.32887 -0.54332,-7.02372 -1.36801,-7.5334 -1.53703,-0.94994 -6.63322,0.32176 -6.3466,1.58372 0.4502,1.98218 3.88472,10.97544 4.65514,12.18942 1.87249,2.95057 3.14177,0.36191 3.05947,-6.23974 z m -9.59956,0.6955 c -0.34276,-2.96966 -3.21362,-4.26135 -5.15539,-2.31958 -0.83538,0.83538 -0.54948,1.27744 1.10622,1.71041 1.22801,0.32114 2.23275,1.2064 2.23275,1.96725 0,0.76085 0.47989,1.38337 1.06642,1.38337 0.58653,0 0.92403,-1.23365 0.75,-2.74145 z m -8.85335,-1.66141 c 0.50246,-1.32157 1.39132,-2.69813 1.97525,-3.05902 0.58392,-0.36088 1.06168,-1.55676 1.06168,-2.6575 0,-1.70118 -0.56244,-1.9548 -3.75,-1.69099 -3.44797,0.28537 -3.77581,0.5798 -4.07046,3.65557 -0.17625,1.83985 -0.0779,3.97735 0.21862,4.75 0.8544,2.22653 3.56417,1.63408 4.56491,-0.99806 z M 333.91406,226.75 c 1.57741,-4.17742 -0.33174,-5.75 -6.98063,-5.75 -4.26101,0 -6.15409,0.41146 -6.54182,1.42186 -0.89131,2.32273 1.40759,5.41492 4.35801,5.86185 6.72618,1.01888 8.30003,0.75549 9.16444,-1.53371 z M 312.5,215 c 0,-0.86347 -1.77264,-2.11281 -4.17731,-2.94412 -4.99069,-1.72531 -11.60863,-0.56679 -12.1215,2.12196 -0.37609,1.97166 2.51731,2.62639 10.79881,2.44357 4.16826,-0.092 5.5,-0.48461 5.5,-1.62141 z m 22.30056,-2.0856 c 0.4417,-3.79984 -2.09068,-5.34216 -8.52413,-5.19154 -6.75536,0.15817 -8.16997,1.26447 -5.94972,4.65301 1.78278,2.72087 4.11195,3.46738 10.17329,3.26059 3.51542,-0.11993 4.03641,-0.44969 4.30056,-2.72206 z M 316,208.53518 c 0,-2.16517 -3.0016,-3.31876 -7.25,-2.78633 -4.4503,0.55773 -4.75823,1.46666 -1,2.95173 4.15526,1.64195 8.25,1.55986 8.25,-0.1654 z M 297,208 c 0,-0.55 -0.42344,-1 -0.94098,-1 -0.51754,0 -1.2191,0.45 -1.55902,1 -0.33992,0.55 0.0835,1 0.94098,1 0.85746,0 1.55902,-0.45 1.55902,-1 z m 32,-5.48095 c 0,-1.98604 -4.30165,-2.96316 -6.90686,-1.5689 C 318.70292,202.76455 319.67791,204 324.5,204 c 3.3076,0 4.5,-0.39242 4.5,-1.48095 z m -25.48623,-2.89776 c 1.57629,-3.77261 3.06372,-4.62129 8.0994,-4.62129 3.95307,0 4.91409,-1.48299 3.45239,-5.32755 -1.38309,-3.63782 -3.44606,-3.35883 -7.96794,1.07755 -2.10224,2.0625 -5.23422,4.79673 -6.95994,6.07606 -3.26757,2.42235 -4.02962,4.64737 -1.88768,5.51166 2.75514,1.11172 3.91418,0.51358 5.26377,-2.71643 z M 308,200 c 0,-0.55 -0.42344,-1 -0.94098,-1 -0.51754,0 -1.2191,0.45 -1.55902,1 -0.33992,0.55 0.0835,1 0.94098,1 0.85746,0 1.55902,-0.45 1.55902,-1 z m 25.42089,-3.65443 c 1.19656,-3.11818 -1.23454,-5.08395 -7.82542,-6.32756 -3.55358,-0.67051 -6.98664,-0.89429 -7.62901,-0.49728 -1.2528,0.77427 -0.62498,5.97796 0.95118,7.88396 1.40156,1.69485 13.79371,0.78989 14.50325,-1.05912 z m -32.10798,-3.15029 C 304.92886,189.42104 304.72605,188 300.57143,188 296.5506,188 294,190.16247 294,193.57143 c 0,3.42596 3.8605,3.22739 7.31291,-0.37615 z m 30.08335,-7.78552 c 0.89017,-2.31975 0.12774,-3.04321 -5.07556,-4.81616 -6.27816,-2.13918 -8.3207,-2.04805 -8.3207,0.37122 0,3.92318 12.06082,7.92502 13.39626,4.44494 z M 230.25389,184.475 c 0.0571,-0.53625 -0.65004,-1.12019 -1.5715,-1.29765 -1.18721,-0.22864 -1.49481,0.1479 -1.05568,1.29227 0.64751,1.68737 2.44757,1.69106 2.62718,0.005 z m 11.16432,-3.08199 C 242.2882,181.05917 243,180.12787 243,179.32346 c 0,-2.10115 -4.39739,-1.25464 -4.81311,0.92654 -0.34925,1.83244 0.57901,2.1608 3.23132,1.14301 z m 71,0 c 1.73938,-0.66746 1.99959,-2.18592 0.72028,-4.20316 -0.81144,-1.27951 -13.83901,-5.13866 -17.46181,-5.17271 -2.16691,-0.0204 -1.93878,2.85712 0.32332,4.07818 2.09316,1.12986 7.92611,3.53207 11.5,4.7361 1.65,0.55588 3.0757,1.04621 3.16821,1.08963 0.0925,0.0434 0.88002,-0.19419 1.75,-0.52804 z m 17.77332,-7.72756 c 0.16966,-1.191 -0.0733,-6.44045 -0.53994,-11.66545 -0.46662,-5.225 -1.00835,-11.975 -1.20385,-15 -0.56232,-8.70116 -1.55098,-13 -2.98976,-13 -0.72776,0 -1.62464,0.94975 -1.99307,2.11054 -0.36842,1.1608 -2.26361,3.87465 -4.21154,6.03077 l -3.54169,3.92022 0.55191,12.21924 c 0.30355,6.72057 0.86674,13.0072 1.25155,13.97028 0.72349,1.81073 9.07158,4.81931 11.17639,4.02788 0.65534,-0.24642 1.33034,-1.42248 1.5,-2.61348 z M 288.5,170.5 c 0,-1.34198 -0.77822,-2.11011 -2.36534,-2.33466 -3.21968,-0.45555 -4.84263,1.27669 -3.12978,3.34054 1.82457,2.19848 5.49512,1.52659 5.49512,-1.00588 z m 23.34795,-0.25 c 0.85302,-1.62557 -0.0595,-12.1432 -1.4316,-16.5 -0.76473,-2.42825 -2.91728,-2.18536 -5.62588,0.63482 -1.25976,1.31165 -4.20297,3.56729 -6.54047,5.01254 -6.44306,3.98367 -5.71226,7.10355 2.25,9.60551 2.2,0.6913 4.9,1.61801 6,2.05934 3.13744,1.25878 4.3585,1.07334 5.34795,-0.81221 z m -32.97393,-2.59821 c 1.8476,-2.22622 -1.93432,-4.84657 -6.44863,-4.468 -4.86685,0.40812 -5.36209,2.10535 -1.21129,4.15115 4.03601,1.98923 6.19776,2.07865 7.65992,0.31685 z m -12.3501,-5.72715 c 0.80703,-2.54274 0.9588,-2.39355 -4.52716,-4.45055 -6.93195,-2.59919 -10.40276,-2.89474 -11.95997,-1.01842 -1.7397,2.09621 -0.71318,3.11089 5.55443,5.49037 6.78922,2.57749 10.1099,2.57099 10.9327,-0.0214 z m 22.28171,-3.63643 C 289.11496,154.02538 287.73399,150 285.96221,150 c -0.9455,0 -8.15634,7.44304 -8.77409,9.05664 -0.53614,1.40041 5.16737,3.92433 8.31188,3.67819 2.76592,-0.21651 3.02385,-0.56346 3.30563,-4.44662 z m -13.93314,-2.72227 c 1.52525,-0.78874 3.39691,-2.18562 4.15925,-3.10418 0.76233,-0.91856 2.43883,-2.07037 3.72553,-2.55957 3.87951,-1.47499 5.6406,-7.20248 4.30384,-13.99712 -0.61842,-3.14336 -1.05687,-6.09542 -0.97433,-6.56013 0.0825,-0.46472 0.0968,-2.53244 0.0316,-4.59494 -0.092,-2.9132 -0.52365,-3.75 -1.93441,-3.75 -5.52225,7.01528 -10.45507,15.32332 -15.87452,20.76744 -5.12022,5.12021 -9.30949,9.52159 -9.30949,9.78082 0,0.673 10.24232,5.37484 11.79966,5.41676 0.71481,0.0192 2.54759,-0.61035 4.07283,-1.39908 z m 24.22092,-0.83239 c 12.50992,-7.77578 12.94917,-8.45598 11.03465,-17.08807 -0.62767,-2.83001 -1.25076,-6.71679 -1.38464,-8.63729 -0.39971,-5.73379 -3.06202,-5.0617 -6.67691,1.68555 -1.7109,3.19344 -4.45079,7.32974 -6.08862,9.19177 -2.68585,3.05349 -2.97789,4.0587 -2.97789,10.25 0,7.73348 0.4738,8.09101 6.09341,4.59804 z m 22.94495,-22.63472 c 2.68668,-5.25247 4.34633,-14.98891 4.0226,-23.59883 -0.21129,-5.61971 -5.38113,-21.257239 -9.13772,-27.639424 C 312.54737,73.426266 310.02628,70 308.93191,70 c -1.809,0 -0.89936,8.997941 1.73865,17.198378 1.8384,5.71476 2.5925,10.015473 2.42002,13.801622 -0.64041,14.05846 0.13234,33.49482 1.50539,37.86381 0.75295,2.39584 4.49768,-1.00805 7.44239,-6.76498 z m -28.03373,2.61937 c 0.82755,-0.67001 3.26485,-3.8057 5.41622,-6.9682 2.15137,-3.1625 4.21556,-5.75 4.58708,-5.75 C 305.60921,122 307,113.48588 307,103.6832 307,85.915041 305.17347,80.908111 294.80353,70.25 c -6.23514,-6.408406 -8.25676,-6.814867 -7.46059,-1.5 0.30897,2.0625 0.83345,7.8 1.16552,12.75 0.33206,4.95 1.18209,17.55 1.88894,28 0.70685,10.45 1.08237,20.6875 0.83449,22.75 -0.46944,3.90594 0.22901,4.52768 2.77274,2.4682 z M 283.42443,80.75 c 1.24785,-6.070219 1.23802,-21.436598 -0.0171,-26.817059 -0.74586,-3.19721 -1.33215,-9.479598 -1.30287,-13.960863 0.0293,-4.481264 -0.17331,-8.374314 -0.45022,-8.651222 -1.32045,-1.320452 -4.54703,1.271792 -8.48893,6.820031 -3.3743,4.749337 -4.44194,7.237591 -4.81854,11.230141 -0.49977,5.298364 0.30228,7.664817 9.2795,27.378972 2.94749,6.472746 4.99896,7.887989 5.79821,4 z m 38.77312,-11.345413 c -0.53143,-13.889076 -3.24142,-40.618046 -4.32309,-42.639158 -1.02004,-1.905959 -1.10702,-1.896468 -3.5796,0.390571 -1.39379,1.2892 -3.64682,4.088302 -5.00674,6.220227 -2.26169,3.545629 -2.44012,4.654379 -2.092,13 0.37831,9.06957 0.41806,9.190905 6.69181,20.423911 3.47118,6.215076 6.82893,11.12214 7.46166,10.904587 0.77236,-0.265564 1.05102,-2.993191 0.84796,-8.300138 z m -18.70011,1.599552 c 1.04412,-1.689417 0.84058,-12.441594 -0.30416,-16.06809 C 302.59673,53.046222 301.87661,46.55 301.59301,40.5 300.93403,26.442237 300.24636,23 298.09697,23 c -2.05147,0 -11.1024,17.226022 -11.09915,21.124273 0.002,2.998228 2.38326,10.244347 3.98121,12.117242 0.59056,0.692167 3.16044,4.520985 5.71085,8.508485 4.61484,7.215195 5.63459,8.152044 6.80756,6.254139 z"
     id="path817"
     inkscape:connector-curvature="0"
     sodipodi:nodetypes="cccscccccsssccccccscccsscccccsscccscsscsccsccscccccsssccccsscscsscsccsscccscsscccccsscsccsscsccccccsssccsscccccsscscccscccccccscccscsscccscsccccsscscsccsscssscsssscssccsssccssccssssscscscsccccssssscsccsccscscscscssscscscscccscsssccccccsccccscsscsscscccsscccsccsscsssscscccssscssssccsccsscsscssssssscsscsccsscssssscscccssssccsccsccccsccccccsccsccscscsccssccscccsscccccccssccssccsccccccccscccsssccssscsscccssssssccscsccccsssccssscsscsccssccsc" />
</svg>
